<svg xmlns="http://www.w3.org/2000/svg" width="32" height="28" viewBox="0 0 32 28">
  <defs>
    <style>
      .cls-1 {
        fill: #666d89;
        fill-rule: evenodd;
      }
    </style>
  </defs>
  <path id="bubble" class="cls-1" d="M16,5C10.037,5,5,8.206,5,12a0.5,0.5,0,0,0,1,0c0-3.2,4.673-6,10-6A0.5,0.5,0,0,0,16,5Zm0-5C7.163,0,0,5.373,0,12c0,4.127,2.779,7.766,7.008,9.926C7.008,21.953,7,21.971,7,22c0,1.793-1.339,3.723-1.928,4.736h0A0.9,0.9,0,0,0,5.906,28a2.471,2.471,0,0,1,.255-0.013c3.125-.512,6.069-3.383,6.753-4.216A21.269,21.269,0,0,0,16,24c8.836,0,16-5.373,16-12S24.836,0,16,0Zm0,22a19.353,19.353,0,0,1-2.8-.207,1.937,1.937,0,0,0-.29-0.022,2,2,0,0,0-1.546.731,13.439,13.439,0,0,1-3.085,2.539A7.824,7.824,0,0,0,9,22.111c0.006-.065.009-0.129,0.009-0.185a2,2,0,0,0-1.09-1.781C4.212,18.252,2,15.207,2,12,2,6.486,8.28,2,16,2S30,6.486,30,12,23.72,22,16,22Z"/>
</svg>
