<svg xmlns="http://www.w3.org/2000/svg" width="22" height="32" viewBox="0 0 22 32">
  <defs>
    <style>
      .cls-1 {
        fill: #666d89;
        fill-rule: evenodd;
      }
    </style>
  </defs>
  <path id="bulb" class="cls-1" d="M11,0A11,11,0,0,0,0,11c0,4.031,3.689,8.3,5.031,12.055C7.034,28.651,6.813,32,11,32c4.25,0,3.965-3.334,5.969-8.922C18.316,19.319,22,15,22,11A11,11,0,0,0,11,0Zm2.593,27.176-4.959.62c-0.177-.513-0.367-1.112-0.6-1.893,0-.01-0.007-0.022-0.009-0.031l6.189-.773c-0.088.3-.183,0.607-0.264,0.884C13.821,26.431,13.7,26.822,13.593,27.176ZM7.736,24.908C7.555,24.307,7.35,23.672,7.121,23h7.766c-0.122.36-.245,0.719-0.351,1.059ZM11,30a1.738,1.738,0,0,1-2-1.25l4.238-.53C12.628,29.873,12.181,30,11,30Zm4.672-9H6.339c-0.5-1.079-1.1-2.16-1.686-3.217C3.349,15.448,2,13.033,2,11a9,9,0,0,1,18,0c0,2.018-1.35,4.446-2.655,6.795C16.76,18.849,16.167,19.926,15.672,21ZM11,5a6.006,6.006,0,0,0-6,6,0.5,0.5,0,0,0,1,0,5.006,5.006,0,0,1,5-5A0.5,0.5,0,1,0,11,5Z"/>
</svg>
