<svg xmlns="http://www.w3.org/2000/svg" width="32" height="28" viewBox="0 0 32 28">
  <defs>
    <style>
      .cls-1 {
        fill: #666d89;
        fill-rule: evenodd;
      }
    </style>
  </defs>
  <path id="heart" class="cls-1" d="M29.192,2.792A9.632,9.632,0,0,0,16,2.5a9.631,9.631,0,0,0-13.191.288,9.4,9.4,0,0,0,0,13.4l11.053,10.93a3.047,3.047,0,0,0,4.278,0l11.053-10.93A9.4,9.4,0,0,0,29.192,2.792ZM27.765,14.781L16.713,25.711a1.015,1.015,0,0,1-1.425,0L4.235,14.781a7.429,7.429,0,0,1,0-10.579A7.6,7.6,0,0,1,14.644,3.98L16,5.2,17.356,3.98A7.6,7.6,0,0,1,27.765,4.2,7.429,7.429,0,0,1,27.765,14.781ZM9.252,5.026h0A4.247,4.247,0,0,0,5,9.271H5a0.5,0.5,0,0,0,1,0H6A3.248,3.248,0,0,1,9.251,6.025h0A0.5,0.5,0,1,0,9.252,5.026Z"/>
</svg>
