<svg xmlns="http://www.w3.org/2000/svg" width="22" height="32" viewBox="0 0 22 32">
  <defs>
    <style>
      .cls-1 {
        fill: #666d89;
        fill-rule: evenodd;
      }
    </style>
  </defs>
  <path id="phone" class="cls-1" d="M19,0H3A3,3,0,0,0,0,3V29a3,3,0,0,0,3,3H19a3,3,0,0,0,3-3V3A3,3,0,0,0,19,0Zm1,29a1,1,0,0,1-1,1H3a1,1,0,0,1-1-1V27H20v2Zm0-3H2V6H20V26ZM20,5H2V3A1,1,0,0,1,3,2H19a1,1,0,0,1,1,1V5ZM13,3.5a0.5,0.5,0,0,1-.5.5h-3A0.5,0.5,0,0,1,9,3.5H9A0.5,0.5,0,0,1,9.5,3h3a0.5,0.5,0,0,1,.5.5h0Zm-1,25a0.5,0.5,0,0,1-.5.5h-1a0.5,0.5,0,0,1-.5-0.5h0a0.5,0.5,0,0,1,.5-0.5h1a0.5,0.5,0,0,1,.5.5h0Z"/>
</svg>
